SplineFontDB: 3.2
FontName: AurebeshAF-Canon
FullName: Aurebesh AF Canon
FamilyName: Aurebesh AF
Weight: Bold
Copyright: CC-0 public domain, created by AurekFonts
UComments: "2020-8-19: Created with FontForge (http://fontforge.org)"
Version: 001.000
ItalicAngle: 0
UnderlinePosition: -100
UnderlineWidth: 50
Ascent: 800
Descent: 200
InvalidEm: 0
LayerCount: 2
Layer: 0 0 "Back" 1
Layer: 1 0 "Fore" 0
XUID: [1021 178 1911899458 4173]
FSType: 0
OS2Version: 0
OS2_WeightWidthSlopeOnly: 0
OS2_UseTypoMetrics: 1
CreationTime: 1597885425
ModificationTime: 1598232980
PfmFamily: 17
TTFWeight: 700
TTFWidth: 5
LineGap: 90
VLineGap: 0
OS2TypoAscent: 0
OS2TypoAOffset: 1
OS2TypoDescent: 0
OS2TypoDOffset: 1
OS2TypoLinegap: 90
OS2WinAscent: 0
OS2WinAOffset: 1
OS2WinDescent: 0
OS2WinDOffset: 1
HheadAscent: 0
HheadAOffset: 1
HheadDescent: 0
HheadDOffset: 1
OS2Vendor: 'PfEd'
Lookup: 258 0 0 "'kern' Horizontal Kerning in Latin lookup 0" { "'kern' Horizontal Kerning in Latin lookup 0-1" [150,0,4] } ['kern' ('DFLT' <'dflt' > 'latn' <'dflt' > ) ]
MarkAttachClasses: 1
DEI: 91125
KernClass2: 29 34 "'kern' Horizontal Kerning in Latin lookup 0-1"
 101 A a Agrave Aacute Acircumflex Atilde Adieresis Aring agrave aacute acircumflex atilde adieresis aring
 3 B b
 21 C c Ccedilla ccedilla
 7 D R d r
 75 E e Egrave Eacute Ecircumflex Edieresis egrave eacute ecircumflex edieresis
 3 F f
 13 G g SHdigraph
 3 H h
 3 J j
 3 M m
 13 N n CHdigraph
 89 O o Ograve Oacute Ocircumflex Otilde Odieresis ograve oacute ocircumflex otilde odieresis
 3 Q q
 3 T t
 3 V v
 3 X x
 3 Y y
 12 comma period
 38 dollar cent sterling Euro yen currency
 21 quotedbl quotedblleft
 22 quotesingle quoteright
 14 hyphen uni00AD
 13 quotedblright
 9 quoteleft
 10 underscore
 3 one
 5 colon
 9 EOdigraph
 3 B b
 21 C c Ccedilla ccedilla
 3 D d
 75 E e Egrave Eacute Ecircumflex Edieresis egrave eacute ecircumflex edieresis
 3 F f
 3 H h
 75 I i Igrave Iacute Icircumflex Idieresis igrave iacute icircumflex idieresis
 3 J j

StartChar: A
Encoding: 65 65 0
Width: 1283
VWidth: 1100
Flags: W
HStem: 0 21G<60 230 872.098 1263.78> 0 21G<60 230 872.098 1263.78> 140 160<230 636.59> 400 160<230 636.59> 680 20G<60 230 872.098 1263.78> 680 20G<60 230 872.098 1263.78>
VStem: 60 170<0 140 560 700>
LayerCount: 2
Fore
SplineSet
60 700 m 1x3a
 230 700 l 1
 230 560 l 1
 636.58984375 560 l 1
 911.349609375 700 l 1
 1263.78027344 700 l 1
 675 400 l 1
 60 400 l 1
 60 700 l 1x3a
60 0 m 1xb2
 60 300 l 1
 675 300 l 1
 1263.78027344 0 l 1
 911.349609375 0 l 1
 636.58984375 140 l 1
 230 140 l 1
 230 0 l 1
 60 0 l 1xb2
EndSplineSet
Validated: 1
EndChar

StartChar: B
Encoding: 66 66 1
Width: 1246
VWidth: 1100
Flags: W
HStem: 0 160<344.35 901.78> 270 160<403 843> 540 160<344.35 901.78>
CounterMasks: 1 e0
LayerCount: 2
Fore
SplineSet
973.110351562 700 m 1
 973.110351562 699.889648438 l 1
 1216.12011719 430 l 1
 1000.8203125 430 l 1
 901.780273438 540 l 1
 344.349609375 540 l 1
 245.299804688 430 l 1
 30 430 l 1
 273.110351562 700 l 1
 973.110351562 700 l 1
403 430 m 1
 843 430 l 1
 843 270 l 1
 403 270 l 1
 403 430 l 1
973.110351562 0 m 1
 273.110351562 0 l 1
 30 270 l 1
 245.299804688 270 l 1
 344.349609375 160 l 1
 901.780273438 160 l 1
 1000.8203125 270 l 1
 1216.12011719 270 l 1
 973.110351562 0.1103515625 l 1
 973.110351562 0 l 1
EndSplineSet
Validated: 1
EndChar

StartChar: C
Encoding: 67 67 2
Width: 780
VWidth: 1100
Flags: W
HStem: 0 21G<530 700> 0 21G<530 700> 220 260<300 470> 680 20G<70 240> 680 20G<70 240>
VStem: 70 170<220 700> 300 170<220 480> 530 170<0 480>
CounterMasks: 1 07
LayerCount: 2
Fore
SplineSet
70 700 m 1x37
 240 700 l 1
 240 220 l 1
 70 220 l 1
 70 700 l 1x37
300 480 m 5
 470 480 l 5
 470 220 l 5
 300 220 l 5
 300 480 l 5
530 480 m 5
 700 480 l 5
 700 0 l 5
 530 0 l 5xa7
 530 480 l 5
EndSplineSet
Validated: 1
EndChar

StartChar: D
Encoding: 68 68 3
Width: 862
VWidth: 1100
Flags: W
HStem: 0 21G<154.21 364.118> 0 21G<154.21 364.118> 270 160<164 344.67> 540 160<144 535.14>
LayerCount: 2
Fore
SplineSet
144 700 m 1xb0
 843.809570312 700 l 1
 350.009765625 0 l 1
 154.209960938 0 l 1
 344.669921875 270 l 1
 50 270 l 1
 164 430 l 1
 457.540039062 430 l 1
 535.139648438 540 l 1
 30 540 l 1
 144 700 l 1xb0
EndSplineSet
Validated: 1
EndChar

StartChar: E
Encoding: 69 69 4
Width: 1129
VWidth: 1100
Flags: W
HStem: 0 21G<345.798 550.773 819.91 989.91> 0 21G<345.798 550.773 819.91 989.91> 540 160<799.91 819.91 989.91 1089.91>
VStem: 819.91 170<0 540>
LayerCount: 2
Fore
SplineSet
1089.91015625 540 m 1xb0
 989.91015625 540 l 1
 989.91015625 0 l 1
 819.91015625 0 l 1
 819.91015625 540 l 1
 799.91015625 540 l 1
 541.190429688 0 l 1
 355.379882812 0 l 1
 20 700 l 1
 208.509765625 700 l 1
 448.280273438 199.540039062 l 1
 688.060546875 700 l 1
 1089.91015625 700 l 1
 1089.91015625 540 l 1xb0
EndSplineSet
Validated: 1
EndChar

StartChar: F
Encoding: 70 70 5
Width: 1150
VWidth: 1100
Flags: W
HStem: 0.00976562 160<230 490 639.99 1099.99> 325 160.01<230 486.028> 355.01 163<640 734.931> 680.01 20G<490 640> 680.01 20G<490 640>
VStem: 59.9902 170.01<160 325> 490 149.99<160.01 337 518.01 700.01>
LayerCount: 2
Fore
SplineSet
881 415.509765625 m 1xb6
 805 388.509765625 725.330078125 368.33984375 639.990234375 355.009765625 c 1xb6
 639.990234375 160.009765625 l 1
 1099.99023438 160.009765625 l 1
 1099.99023438 0.009765625 l 1
 59.990234375 0.009765625 l 1
 59.990234375 485.009765625 l 1
 224.990234375 485.009765625 l 2xc6
 316.330078125 485.009765625 405.330078125 489.009765625 490 497.009765625 c 1
 490 700.009765625 l 1
 640 700.009765625 l 1
 640 518.009765625 l 1
 726.66015625 534.009765625 807 557.509765625 883 588.509765625 c 0
 959 619.509765625 1031.33007812 659.669921875 1100 709.009765625 c 1
 1100 522.009765625 l 1
 1030 478.009765625 957 442.509765625 881 415.509765625 c 1xb6
490 337 m 1
 417.990234375 330.33984375 332 326.33984375 230 325 c 1xc6
 230 160 l 1
 490 160 l 1
 490 337 l 1
EndSplineSet
Validated: 1
EndChar

StartChar: G
Encoding: 71 71 6
Width: 1102
VWidth: 1100
Flags: W
HStem: 0 160<230 596> 480 220<350 500> 540 160<500 804>
VStem: 60 170<160 700>
LayerCount: 2
Fore
SplineSet
701 0 m 1xb0
 60 0 l 1
 60 700 l 1
 230 700 l 1
 230 160 l 1
 596 160 l 1
 804 540 l 1
 500 540 l 1xb0
 500 480 l 1
 350 480 l 1
 350 700 l 1xd0
 1082 700 l 1
 701 0 l 1xb0
EndSplineSet
Validated: 1
EndChar

StartChar: H
Encoding: 72 72 7
Width: 1200
VWidth: 1100
Flags: W
HStem: 0 160<50 1150> 270 160<240 950> 540 160<50 1150>
CounterMasks: 1 e0
LayerCount: 2
Fore
SplineSet
1150 540 m 1
 50 540 l 1
 50 700 l 1
 1150 700 l 1
 1150 540 l 1
950 270 m 1
 240 270 l 1
 240 430 l 1
 950 430 l 1
 950 270 l 1
1150 0 m 1
 50 0 l 1
 50 160 l 1
 1150 160 l 1
 1150 0 l 1
EndSplineSet
Validated: 1
EndChar

StartChar: I
Encoding: 73 73 8
Width: 526
VWidth: 1100
Flags: W
HStem: 0 21G<286 456> 0 21G<286 456> 680 20G<229.095 456> 680 20G<229.095 456>
VStem: 286 170<0 511>
LayerCount: 2
Fore
SplineSet
456 0 m 1xa8
 286 0 l 1
 286 511 l 1
 152 376 l 1
 40 490 l 1
 249 700 l 1
 456 700 l 1
 456 0 l 1xa8
EndSplineSet
Validated: 1
EndChar

StartChar: J
Encoding: 74 74 9
Width: 1069
VWidth: 1100
Flags: W
HStem: 0 160<50.0098 600.01> 270 159.984<50 362.116> 680 20G<821.675 1050.01> 680 20G<821.675 1050.01>
LayerCount: 2
Fore
SplineSet
708.009765625 0 m 1xe0
 50.009765625 0 l 1
 50.009765625 160 l 1
 600.009765625 160 l 1
 706.009765625 379 l 1
 620.6796875 335.66015625 524.83984375 315.5 418.509765625 298.5 c 0
 312.169921875 281.5 189.33984375 271.330078125 50 270 c 1
 50 430 l 1
 52.916015625 429.989257812 55.826171875 429.984375 58.728515625 429.984375 c 0
 244.9765625 429.984375 404.40625 451.12890625 537 491.5 c 0
 671.669921875 532.5 780.33984375 595.330078125 863.009765625 700 c 1
 1050.00976562 700 l 1
 708.009765625 0 l 1xe0
EndSplineSet
Validated: 1
EndChar

StartChar: K
Encoding: 75 75 10
Width: 1120
VWidth: 1100
Flags: W
HStem: 0 160<50 890> 540 160<50 890>
VStem: 890 170<160 540>
LayerCount: 2
Fore
SplineSet
1060 0 m 1
 50 0 l 1
 50 160 l 1
 890 160 l 1
 890 540 l 1
 50 540 l 1
 50 700 l 1
 1060 700 l 1
 1060 0 l 1
EndSplineSet
Validated: 1
EndChar

StartChar: L
Encoding: 76 76 11
Width: 740
VWidth: 1100
Flags: W
HStem: 0 21G<431.147 680> 0 21G<431.147 680> 680 20G<510 680> 680 20G<510 680>
VStem: 510 170<169 700>
LayerCount: 2
Fore
SplineSet
680 0 m 1xa8
 462 0 l 1
 10 293 l 1
 104 432 l 1
 510 169 l 1
 510 700 l 1
 680 700 l 1
 680 0 l 1xa8
EndSplineSet
Validated: 1
EndChar

StartChar: M
Encoding: 77 77 12
Width: 760
VWidth: 1100
Flags: W
HStem: 0 160<300 592> 540 160<508 650>
LayerCount: 2
Fore
SplineSet
690 160 m 1
 592 0 l 1
 20 0 l 1
 405 700 l 1
 650 700 l 1
 650 540 l 1
 508 540 l 1
 300 160 l 1
 690 160 l 1
EndSplineSet
Validated: 1
EndChar

StartChar: N
Encoding: 78 78 13
Width: 1170
VWidth: 1100
Flags: W
HStem: 0 21G<178 396.618 958.418 1150> 0 21G<178 396.618 958.418 1150> 680 20G<124.835 308.25 566.337 788.629> 680 20G<124.835 308.25 566.337 788.629>
VStem: 50 150<240.387 519.785>
LayerCount: 2
Fore
SplineSet
678 550 m 1xa8
 386 0 l 1
 178 0 l 1
 178.389648438 0.6904296875 l 1
 99.400390625 90.6103515625 50 219.33984375 50 362.5 c 0
 50 493.209960938 91.1904296875 611.900390625 158.48046875 700 c 1
 308.25 700 l 1
 241.08984375 617.209960938 200 495.740234375 200 373 c 0
 200 284.400390625 232.41015625 193.669921875 269.580078125 123.370117188 c 1
 577 700 l 1
 778 700 l 1
 1150 0 l 1
 969 0 l 1
 678 550 l 1xa8
EndSplineSet
Validated: 1
EndChar

StartChar: O
Encoding: 79 79 14
Width: 1051
VWidth: 1100
Flags: W
HStem: 0 160<223 828> 540 160<388 662>
LayerCount: 2
Fore
SplineSet
909 0 m 1
 142 0 l 1
 40 160 l 1
 275 700 l 1
 776 700 l 1
 1011 160 l 1
 909 0 l 1
662 540 m 1
 388 540 l 1
 223 160 l 1
 828 160 l 1
 662 540 l 1
EndSplineSet
Validated: 1
EndChar

StartChar: P
Encoding: 80 80 15
Width: 790
VWidth: 1100
Flags: W
HStem: 0 160<225.918 560> 530 170<290 440>
VStem: 50 151<190.705 461.24> 560 170<160 700>
LayerCount: 2
Fore
SplineSet
730 700 m 1
 730 0 l 1
 170 0 l 1
 126.669921875 57.330078125 95.830078125 107.16015625 77.5 149.5 c 0
 59.16015625 191.830078125 50 242.669921875 50 302 c 0
 50 311.330078125 50.66015625 327.330078125 52 350 c 0
 56.66015625 418.669921875 72.66015625 479.5 100 532.5 c 0
 127.330078125 585.5 166.620117188 650 230 700 c 1
 440 700 l 1
 440 530 l 1
 290 530 l 1
 290 573 l 1
 273 572 l 1
 251 539.33984375 233.5 514.169921875 222.5 478.5 c 0
 211.5 442.83984375 202.540039062 394.299804688 202 350 c 0
 201.900390625 341.969726562 201 330.669921875 201 316 c 0
 201 257.330078125 212.669921875 205.330078125 236 160 c 1
 560 160 l 1
 560 700 l 1
 730 700 l 1
EndSplineSet
Validated: 1
EndChar

StartChar: Q
Encoding: 81 81 16
Width: 1026
VWidth: 1100
Flags: W
HStem: 0 160<230 496> 540 160<230 796>
VStem: 60 170<160 540> 796 170<420 540>
LayerCount: 2
Fore
SplineSet
966 657 m 1
 966 420 l 1
 796 420 l 1
 796 540 l 1
 230 540 l 1
 230 160 l 1
 710 160 l 1
 496 0 l 1
 103 0 l 1
 60 43 l 1
 60 657 l 1
 103 700 l 1
 923 700 l 1
 966 657 l 1
EndSplineSet
Validated: 1
EndChar

StartChar: R
Encoding: 82 82 17
Width: 862
VWidth: 1100
Flags: W
HStem: 0 21G<154.21 364.118> 0 21G<154.21 364.118> 540 160<144 535.14>
LayerCount: 2
Fore
SplineSet
144 700 m 1xa0
 843.809570312 700 l 1
 350.009765625 0 l 1
 154.209960938 0 l 1
 535.139648438 540 l 1
 30 540 l 1
 144 700 l 1xa0
EndSplineSet
Validated: 1
EndChar

StartChar: S
Encoding: 83 83 18
Width: 1116
VWidth: 1100
Flags: W
HStem: 0 21G<501.126 563.342 829.029 1056> 0 21G<501.126 563.342 829.029 1056> 680 20G<150 407.96 886 1056> 680 20G<150 407.96 886 1056>
VStem: 886 170<201 700>
LayerCount: 2
Fore
SplineSet
1056 700 m 1xa8
 1056 0 l 1
 849 0 l 1
 150 700 l 1
 388 700 l 1
 886 201 l 1
 886 700 l 1
 1056 700 l 1xa8
68 357 m 1
 614 158 l 1
 556 0 l 1
 10 199 l 1
 68 357 l 1
EndSplineSet
Validated: 1
EndChar

StartChar: T
Encoding: 84 84 19
Width: 1140
VWidth: 1100
Flags: W
HStem: 0 21G<375 765> 0 21G<375 765> 680 20G<485 655> 680 20G<485 655>
VStem: 485 170<150 700>
LayerCount: 2
Fore
SplineSet
1120 375 m 1xa8
 745 0 l 1
 395 0 l 1
 20 375 l 1
 230 375 l 1
 455 150 l 1
 485 150 l 1
 485 700 l 1
 655 700 l 1
 655 150 l 1
 685 150 l 1
 910 375 l 1
 1120 375 l 1xa8
EndSplineSet
Validated: 1
EndChar

StartChar: U
Encoding: 85 85 20
Width: 1090
VWidth: 1100
Flags: W
HStem: 0 160<230 860> 540 160<663 860>
VStem: 60 170<160 700> 860 170<160 540>
LayerCount: 2
Fore
SplineSet
1030 657 m 1
 1030 43 l 1
 986 0 l 1
 60 0 l 1
 60 700 l 1
 230 700 l 1
 230 160 l 1
 860 160 l 1
 860 540 l 1
 663 540 l 1
 562 406 l 1
 352 406 l 1
 573 700 l 1
 986 700 l 1
 1030 657 l 1
EndSplineSet
Validated: 1
EndChar

StartChar: V
Encoding: 86 86 21
Width: 920
VWidth: 1100
Flags: W
HStem: 0 21G<375 545> 0 21G<375 545> 680 20G<30 260.909 659.091 890> 680 20G<30 260.909 659.091 890>
VStem: 375 170<0 350>
LayerCount: 2
Fore
SplineSet
890 700 m 1xa8
 545 350 l 1
 545 0 l 1
 375 0 l 1
 375 350 l 1
 30 700 l 1
 241 700 l 1
 460 480 l 1
 679 700 l 1
 890 700 l 1xa8
EndSplineSet
Validated: 1
EndChar

StartChar: W
Encoding: 87 87 22
Width: 1140
VWidth: 1100
Flags: W
HStem: 0 160<230 910> 540 160<230 910>
VStem: 60 170<160 540> 910 170<160 540>
LayerCount: 2
Fore
SplineSet
1080 43 m 1
 1037 0 l 1
 103 0 l 1
 60 43 l 1
 60 657 l 1
 103 700 l 1
 1037 700 l 1
 1080 657 l 1
 1080 43 l 1
910 540 m 1
 230 540 l 1
 230 160 l 1
 910 160 l 1
 910 540 l 1
EndSplineSet
Validated: 1
EndChar

StartChar: X
Encoding: 88 88 23
Width: 948
VWidth: 1100
Flags: W
HStem: 0 160<269 679> 680 20G<378.238 569.762> 680 20G<378.238 569.762>
LayerCount: 2
Fore
SplineSet
774 0 m 1xc0
 174 0 l 1
 50 70 l 1
 389 700 l 1
 559 700 l 1
 898 70 l 1
 774 0 l 1xc0
679 160 m 1
 474 542 l 1
 269 160 l 1
 679 160 l 1
EndSplineSet
Validated: 1
EndChar

StartChar: Y
Encoding: 89 89 24
Width: 1039
VWidth: 1100
Flags: W
HStem: 0 160<446 557> 600 100<209 292>
LayerCount: 2
Fore
SplineSet
1019 700 m 1
 641 0 l 1
 362 0 l 1
 53 573 l 2
 44.330078125 588.330078125 40 603.669921875 40 619 c 0
 40 641 47.5 659.5 62.5 674.5 c 0
 77.5 689.5 97 698 121 700 c 2
 404 700 l 1
 554 400 l 1
 393 400 l 1
 292 600 l 1
 209 600 l 1
 446 160 l 1
 557 160 l 1
 848 700 l 1
 1019 700 l 1
EndSplineSet
Validated: 1
EndChar

StartChar: Z
Encoding: 90 90 25
Width: 1000
VWidth: 1100
Flags: W
HStem: 0 160<218 770> 390 160<418 770> 680 20G<770 940> 680 20G<770 940>
VStem: 770 170<160 390 550 700>
LayerCount: 2
Fore
SplineSet
940 700 m 1xe8
 940 0 l 1
 94 0 l 1
 50 43 l 1
 50 230 l 1
 218 230 l 1
 218 160 l 1
 770 160 l 1
 770 390 l 1
 418 390 l 1
 325 300 l 1
 88 300 l 1
 341 550 l 1
 770 550 l 1
 770 700 l 1
 940 700 l 1xe8
EndSplineSet
Validated: 1
EndChar

StartChar: bracketleft
Encoding: 91 91 26
Width: 445
VWidth: 1100
Flags: W
HStem: 0 21G<215 365> 0 21G<215 365> 150 140<80 215> 410 140<80 215> 680 20G<215 365> 680 20G<215 365>
VStem: 80 285<150 290 410 550> 215 150<0 150 550 700>
LayerCount: 2
Fore
SplineSet
365 700 m 1x39
 365 410 l 1
 80 410 l 1
 80 550 l 1x3a
 215 550 l 1
 215 700 l 1
 365 700 l 1x39
365 0 m 1xb1
 215 0 l 1
 215 150 l 1xb1
 80 150 l 1
 80 290 l 1
 365 290 l 1xb2
 365 0 l 1xb1
EndSplineSet
Validated: 1
EndChar

StartChar: asciicircum
Encoding: 94 94 27
Width: 400
VWidth: 1100
Flags: W
HStem: 420 120<60 140 260 340> 680 20G<140 260> 680 20G<140 260>
VStem: 140 120<540 700>
LayerCount: 2
Fore
SplineSet
340 540 m 1xd0
 340 420 l 1
 60 420 l 1
 60 540 l 1
 140 540 l 1
 140 700 l 1
 260 700 l 1
 260 540 l 1
 340 540 l 1xd0
EndSplineSet
Validated: 1
EndChar

StartChar: grave
Encoding: 96 96 28
Width: 340
VWidth: 1100
Flags: W
HStem: 700 60<180 280>
VStem: 60 120<470 700>
LayerCount: 2
Fore
SplineSet
280 760 m 1
 280 700 l 1
 180 700 l 1
 180 370 l 1
 60 470 l 1
 60 760 l 1
 280 760 l 1
EndSplineSet
Validated: 1
EndChar

StartChar: at
Encoding: 64 64 29
Width: 1115
VWidth: 1100
Flags: W
HStem: 0 160<230 415> 270 160<350 645> 540 160<230 415>
VStem: 60 170<160 540> 645 170<0 270 430 700> 885 170<43 700>
CounterMasks: 1 e0
LayerCount: 2
Fore
SplineSet
415 0 m 1
 60 0 l 1
 60 700 l 1
 415 700 l 1
 576 540 l 1
 230 540 l 1
 230 160 l 1
 576 160 l 1
 415 0 l 1
645 700 m 1
 815 700 l 1
 815 0 l 1
 645 0 l 1
 645 270 l 1
 350 270 l 1
 350 430 l 1
 645 430 l 1
 645 700 l 1
1055 700 m 1
 1055 43 l 1
 1012 0 l 1
 885 0 l 1
 885 700 l 1
 1055 700 l 1
EndSplineSet
Validated: 1
EndChar

StartChar: question
Encoding: 63 63 30
Width: 518
VWidth: 1100
Flags: W
HStem: 0 21G<140 326.67> 0 21G<140 326.67> 350.01 350<80 230>
VStem: 80 150<350.01 612.01> 288.01 150<227.52 527.08>
LayerCount: 2
Fore
SplineSet
410.509765625 545.509765625 m 1xb8
 428.83984375 493.1796875 438.009765625 439.33984375 438.009765625 384.009765625 c 0
 438.009765625 368.669921875 437.669921875 357.33984375 437.009765625 350.009765625 c 0
 434.33984375 301.33984375 429.33984375 260.509765625 422.009765625 227.509765625 c 0
 414.669921875 194.509765625 402.509765625 160.669921875 385.509765625 126 c 0
 368.509765625 91.33984375 343.33984375 49.33984375 310 0 c 1
 140 0 l 1
 177.33984375 55.33984375 205.509765625 99.509765625 224.509765625 132.509765625 c 0
 243.509765625 165.509765625 258.009765625 198.83984375 268.009765625 232.509765625 c 0
 278.009765625 266.169921875 284.33984375 305.33984375 287.009765625 350.009765625 c 0
 287.669921875 357.33984375 288.009765625 368.33984375 288.009765625 383.009765625 c 0
 288.009765625 465.6796875 268.669921875 542.009765625 230 612.009765625 c 1
 230 350.009765625 l 1
 80 350.009765625 l 1
 80 700.009765625 l 1
 320 700.009765625 l 1
 362 649.33984375 392.169921875 597.83984375 410.509765625 545.509765625 c 1xb8
EndSplineSet
Validated: 1
EndChar

StartChar: semicolon
Encoding: 59 59 31
Width: 310
VWidth: 1100
Flags: W
HStem: 0 21G<80 230> 0 21G<80 230> 680 20G<80 230> 680 20G<80 230>
VStem: 80 150<0 700>
LayerCount: 2
Fore
SplineSet
230 700 m 1xa8
 230 0 l 1
 80 0 l 1
 80 700 l 5
 230 700 l 1xa8
EndSplineSet
Validated: 1
EndChar

StartChar: colon
Encoding: 58 58 32
Width: 505
VWidth: 1100
Flags: W
HStem: 0 154<80 224>
LayerCount: 2
Fore
SplineSet
425 154 m 1
 425 0 l 1
 80 0 l 1
 80 154 l 1
 224 154 l 1
 80 305 l 1
 80 508 l 1
 425 154 l 1
EndSplineSet
Validated: 1
EndChar

StartChar: exclam
Encoding: 33 33 33
Width: 370
VWidth: 1100
Flags: W
VStem: 80 210
LayerCount: 2
Fore
SplineSet
290 668 m 1
 290 516 l 1
 80 301 l 1
 80 453 l 1
 290 668 l 1
290 420 m 1
 290 268 l 1
 80 53 l 1
 80 205 l 1
 290 420 l 1
EndSplineSet
Validated: 1
EndChar

StartChar: quotedbl
Encoding: 34 34 34
Width: 700
VWidth: 1100
Flags: W
HStem: 680 20G<30 251.761 480 640> 680 20G<30 251.761 480 640>
VStem: 480 160<449 700>
LayerCount: 2
Fore
SplineSet
640 700 m 1xa0
 640 350 l 1
 378 350 l 1
 30 700 l 1
 232 700 l 1
 480 449 l 1
 480 700 l 1
 640 700 l 1xa0
EndSplineSet
Validated: 1
EndChar

StartChar: numbersign
Encoding: 35 35 35
Width: 860
VWidth: 1100
Flags: W
HStem: 0 120<80 200 320 420 540 660> 580 120<200 320 440 540 660 780>
VStem: 200 120<120 280> 320 120<420 580> 420 120<120 280> 540 120<420 580>
LayerCount: 2
Fore
SplineSet
660 580 m 1xe4
 660 420 l 1xe4
 540 280 l 1
 540 120 l 1xc8
 660 120 l 1
 660 0 l 1
 80 0 l 1
 80 120 l 1
 200 120 l 1
 200 280 l 1xe4
 320 420 l 1
 320 580 l 1xd0
 200 580 l 1
 200 700 l 1
 780 700 l 1
 780 580 l 1
 660 580 l 1xe4
440 580 m 1xd4
 440 420 l 1xd4
 320 280 l 1
 320 120 l 1
 420 120 l 1
 420 280 l 1xe8
 540 420 l 1
 540 580 l 1
 440 580 l 1xd4
EndSplineSet
Validated: 1
EndChar

StartChar: dollar
Encoding: 36 36 36
Width: 877
VWidth: 1100
Flags: W
HStem: 0 21G<187 405.25> 0 21G<187 405.25> 400 160<60 141 220 280 360 492> 680 20G<141 220 280 360> 680 20G<141 220 280 360>
VStem: 141 79<265 400 560 700> 280 80<265 400 560 700>
LayerCount: 2
Fore
SplineSet
817 560 m 1xb6
 390 0 l 1
 187 0 l 1
 492 400 l 1
 360 400 l 1
 360 265 l 1
 280 265 l 1
 280 400 l 1
 220 400 l 1
 220 265 l 1
 141 265 l 1
 141 400 l 1
 60 400 l 1
 60 560 l 1
 141 560 l 1
 141 700 l 1
 220 700 l 1
 220 560 l 1
 280 560 l 1
 280 700 l 1
 360 700 l 1
 360 560 l 1
 817 560 l 1xb6
EndSplineSet
Validated: 1
EndChar

StartChar: percent
Encoding: 37 37 37
Width: 1060
VWidth: 1100
Flags: W
HStem: 0 100<750 900> 250 100<750 900> 350 100<160 310> 600 100<160 310>
VStem: 60 100<450 600> 310 100<450 600> 390 160<0 280> 510 160<420 700> 650 100<100 250> 900 100<100 250>
LayerCount: 2
Fore
SplineSet
310 350 m 1xbc40
 60 350 l 1
 60 600 l 1
 160 700 l 1
 410 700 l 1
 410 450 l 1
 310 350 l 1xbc40
550 280 m 1x9a40
 550 0 l 1
 390 0 l 1
 390 280 l 1x9a40
 510 420 l 1
 510 700 l 1
 670 700 l 1
 670 420 l 1x9940
 550 280 l 1x9a40
160 600 m 1
 160 450 l 1
 310 450 l 1
 310 600 l 1xbc40
 160 600 l 1
900 0 m 1
 650 0 l 1
 650 250 l 1
 750 350 l 1xd8c0
 1000 350 l 1
 1000 100 l 1
 900 0 l 1
750 250 m 1
 750 100 l 1
 900 100 l 1
 900 250 l 1
 750 250 l 1
EndSplineSet
Validated: 1
EndChar

StartChar: quotesingle
Encoding: 39 39 39
Width: 362
VWidth: 1100
Flags: W
HStem: 720 65<220 265>
VStem: 60 160<432 720>
LayerCount: 2
Fore
SplineSet
352 720 m 1
 220 720 l 1
 220 280 l 1
 60 432 l 1
 60 785 l 1
 265 785 l 1
 352 720 l 1
EndSplineSet
Validated: 1
EndChar

StartChar: parenleft
Encoding: 40 40 40
Width: 445
VWidth: 1100
Flags: W
HStem: 0 21G<215 365> 0 21G<215 365> 270 160<80 215> 680 20G<215 365> 680 20G<215 365>
VStem: 215 150<0 270 430 700>
LayerCount: 2
Fore
SplineSet
365 700 m 1xb4
 365 0 l 1
 215 0 l 1
 215 270 l 1
 80 270 l 1
 80 430 l 1
 215 430 l 1
 215 700 l 1
 365 700 l 1xb4
EndSplineSet
Validated: 1
EndChar

StartChar: asterisk
Encoding: 42 42 41
Width: 580
VWidth: 1100
Flags: W
HStem: 360 280<80 180 400 500> 450 100<180 240 340 400> 680 20G<240 340> 680 20G<240 340>
VStem: 80 100<360 450 550 640> 240 100<300 450 550 700> 400 100<360 450 550 640>
CounterMasks: 1 0e
LayerCount: 2
Fore
SplineSet
500 640 m 1x8e
 500 360 l 1
 400 360 l 1x8e
 400 450 l 1
 340 450 l 1
 340 300 l 1
 240 300 l 1
 240 450 l 1
 180 450 l 1x4e
 180 360 l 1
 80 360 l 1
 80 640 l 1
 180 640 l 1x8e
 180 550 l 1
 240 550 l 1
 240 700 l 1
 340 700 l 1
 340 550 l 1
 400 550 l 1x6e
 400 640 l 1
 500 640 l 1x8e
EndSplineSet
Validated: 1
EndChar

StartChar: comma
Encoding: 44 44 42
Width: 320
VWidth: 1100
Flags: W
HStem: 0 21G<80 240> 0 21G<80 240>
VStem: 80 160<0 350>
LayerCount: 2
Fore
SplineSet
240 350 m 1xa0
 240 0 l 1
 80 0 l 1
 80 350 l 1
 240 350 l 1xa0
EndSplineSet
Validated: 1
EndChar

StartChar: hyphen
Encoding: 45 45 43
Width: 570
VWidth: 1100
Flags: W
HStem: 540 160<80 490>
LayerCount: 2
Fore
SplineSet
490 540 m 5
 80 540 l 1
 80 700 l 1
 490 700 l 1
 490 540 l 5
EndSplineSet
Validated: 1
EndChar

StartChar: period
Encoding: 46 46 44
Width: 540
VWidth: 1100
Flags: W
HStem: 0 350<80 240 300 460>
VStem: 80 160<0 350> 300 160<0 350>
LayerCount: 2
Fore
SplineSet
240 350 m 1
 240 0 l 1
 80 0 l 1
 80 350 l 1
 240 350 l 1
460 350 m 1
 460 0 l 1
 300 0 l 1
 300 350 l 5
 460 350 l 1
EndSplineSet
Validated: 1
EndChar

StartChar: slash
Encoding: 47 47 45
Width: 440
VWidth: 1100
Flags: W
HStem: 0 21G<80 240> 0 21G<80 240> 680 20G<200 360> 680 20G<200 360>
VStem: 80 160<0 280> 200 160<420 700>
LayerCount: 2
Fore
SplineSet
360 700 m 1xa4
 360 420 l 1xa4
 240 280 l 1
 240 0 l 1
 80 0 l 1
 80 280 l 1xa8
 200 420 l 1
 200 700 l 1
 360 700 l 1xa4
EndSplineSet
Validated: 1
EndChar

StartChar: zero
Encoding: 48 48 46
Width: 780
VWidth: 1100
Flags: W
HStem: 0 160<230 550> 270 160<310 470> 540 160<230 550>
VStem: 60 170<160 540> 310 160<270 430> 550 170<160 540>
CounterMasks: 1 fc
LayerCount: 2
Fore
SplineSet
60 0 m 1
 60 700 l 1
 720 700 l 1
 720 0 l 1
 60 0 l 1
230 540 m 1
 230 160 l 1
 550 160 l 1
 550 540 l 1
 230 540 l 1
310 430 m 1
 470 430 l 1
 470 270 l 1
 310 270 l 1
 310 430 l 1
EndSplineSet
Validated: 1
EndChar

StartChar: one
Encoding: 49 49 47
Width: 780
VWidth: 1100
Flags: W
HStem: 0 160<60 305 475 720> 540 160<60 305>
VStem: 305 170<160 540>
LayerCount: 2
Fore
SplineSet
720 160 m 1
 720 0 l 1
 60 0 l 1
 60 160 l 1
 305 160 l 1
 305 540 l 1
 60 540 l 1
 60 700 l 1
 475 700 l 1
 475 160 l 1
 720 160 l 1
EndSplineSet
Validated: 1
EndChar

StartChar: two
Encoding: 50 50 48
Width: 780
VWidth: 1100
Flags: W
HStem: 0 160<60 720> 270 160<60 550> 540 160<60 550>
VStem: 550 170<430 540>
CounterMasks: 1 e0
LayerCount: 2
Fore
SplineSet
720 700 m 1
 720 270 l 1
 60 270 l 1
 60 430 l 1
 550 430 l 1
 550 540 l 1
 60 540 l 1
 60 700 l 1
 720 700 l 1
60 160 m 1
 720 160 l 1
 720 0 l 1
 60 0 l 1
 60 160 l 1
EndSplineSet
Validated: 1
EndChar

StartChar: three
Encoding: 51 51 49
Width: 780
VWidth: 1100
Flags: W
HStem: 0 160<60 550> 270 160<60 470> 540 160<60 550>
VStem: 550 170<160 540>
CounterMasks: 1 e0
LayerCount: 2
Fore
SplineSet
60 0 m 1
 60 160 l 1
 550 160 l 1
 550 540 l 1
 60 540 l 1
 60 700 l 1
 720 700 l 1
 720 0 l 1
 60 0 l 1
60 270 m 1
 60 430 l 1
 470 430 l 1
 470 270 l 1
 60 270 l 1
EndSplineSet
Validated: 1
EndChar

StartChar: four
Encoding: 52 52 50
Width: 780
VWidth: 1100
Flags: W
HStem: 0 21G<550 720> 0 21G<550 720> 270 160<230 550> 680 20G<60 230 550 720> 680 20G<60 230 550 720>
VStem: 60 170<430 700> 550 170<0 270 430 700>
LayerCount: 2
Fore
SplineSet
720 700 m 1xb6
 720 0 l 1
 550 0 l 1
 550 270 l 1
 60 270 l 1
 60 700 l 1
 230 700 l 1
 230 430 l 1
 550 430 l 1
 550 700 l 1
 720 700 l 1xb6
EndSplineSet
Validated: 1
EndChar

StartChar: five
Encoding: 53 53 51
Width: 780
VWidth: 1100
Flags: W
HStem: 0 160<60 550> 270 160<60 550> 540 160<60 720>
VStem: 550 170<160 270>
CounterMasks: 1 e0
LayerCount: 2
Fore
SplineSet
720 0 m 1
 60 0 l 1
 60 160 l 1
 550 160 l 1
 550 270 l 1
 60 270 l 1
 60 430 l 1
 720 430 l 1
 720 0 l 1
60 540 m 1
 60 700 l 1
 720 700 l 1
 720 540 l 1
 60 540 l 1
EndSplineSet
Validated: 1
EndChar

StartChar: six
Encoding: 54 54 52
Width: 780
VWidth: 1100
Flags: W
HStem: 0 160<230 550> 270 160<230 550> 540 160<60 720>
VStem: 60 170<160 270> 550 170<160 270>
CounterMasks: 1 e0
LayerCount: 2
Fore
SplineSet
720 540 m 1
 60 540 l 1
 60 700 l 1
 720 700 l 1
 720 540 l 1
60 0 m 1
 60 430 l 1
 720 430 l 1
 720 0 l 1
 60 0 l 1
230 270 m 1
 230 160 l 1
 550 160 l 1
 550 270 l 1
 230 270 l 1
EndSplineSet
Validated: 1
EndChar

StartChar: seven
Encoding: 55 55 53
Width: 780
VWidth: 1100
Flags: W
HStem: 0 21G<550 720> 0 21G<550 720> 540 160<60 550>
VStem: 550 170<0 540>
LayerCount: 2
Fore
SplineSet
720 0 m 5xb0
 550 0 l 1
 550 540 l 1
 60 540 l 1
 60 700 l 1
 720 700 l 5
 720 0 l 5xb0
EndSplineSet
Validated: 1
EndChar

StartChar: eight
Encoding: 56 56 54
Width: 780
VWidth: 1100
Flags: W
HStem: 0 160<230 550> 270 160<230 550> 540 160<230 550>
VStem: 60 170<160 270 430 540> 550 170<160 270 430 540>
CounterMasks: 1 e0
LayerCount: 2
Fore
SplineSet
60 0 m 1
 60 700 l 1
 720 700 l 1
 720 0 l 1
 60 0 l 1
230 540 m 1
 230 430 l 1
 550 430 l 1
 550 540 l 1
 230 540 l 1
230 270 m 1
 230 160 l 1
 550 160 l 1
 550 270 l 1
 230 270 l 1
EndSplineSet
Validated: 1
EndChar

StartChar: nine
Encoding: 57 57 55
Width: 780
VWidth: 1100
Flags: MW
HStem: 0 160<60 720> 270 160<230 550> 540 160<230 550>
VStem: 60 170<430 540> 550 170<430 540>
CounterMasks: 1 b0
LayerCount: 2
Fore
SplineSet
720 0 m 1
 60 0 l 1
 60 160 l 1
 720 160 l 1
 720 0 l 1
720 700 m 1
 720 270 l 1
 60 270 l 5
 60 700 l 5
 720 700 l 1
550 430 m 1
 550 540 l 1
 230 540 l 1
 230 430 l 1
 550 430 l 1
EndSplineSet
Validated: 1
EndChar

StartChar: backslash
Encoding: 92 92 56
Width: 440
VWidth: 1100
Flags: W
HStem: 0 21G<200 360> 0 21G<200 360> 680 20G<80 240> 680 20G<80 240>
VStem: 80 160<420 700> 200 160<0 280>
LayerCount: 2
Fore
SplineSet
80 700 m 1xa8
 240 700 l 1
 240 420 l 1xa8
 360 280 l 1
 360 0 l 1
 200 0 l 1
 200 280 l 1xa4
 80 420 l 1
 80 700 l 1xa8
EndSplineSet
Validated: 1
EndChar

StartChar: bracketright
Encoding: 93 93 57
Width: 445
VWidth: 1100
Flags: W
HStem: 0 21G<80 230> 0 21G<80 230> 150 140<230 365> 410 140<230 365> 680 20G<80 230> 680 20G<80 230>
VStem: 80 285<150 290 410 550> 80 150<0 150 550 700>
LayerCount: 2
Fore
SplineSet
80 700 m 1x39
 230 700 l 1
 230 550 l 1x39
 365 550 l 1
 365 410 l 1
 80 410 l 1x3a
 80 700 l 1x39
80 0 m 1xb1
 80 290 l 1
 365 290 l 1
 365 150 l 1xb2
 230 150 l 1
 230 0 l 1
 80 0 l 1xb1
EndSplineSet
Validated: 1
EndChar

StartChar: parenright
Encoding: 41 41 58
Width: 445
VWidth: 1100
Flags: W
HStem: 0 21G<80 230> 0 21G<80 230> 270 160<230 365> 680 20G<80 230> 680 20G<80 230>
VStem: 80 150<0 270 430 700>
LayerCount: 2
Fore
SplineSet
80 700 m 1xb4
 230 700 l 1
 230 430 l 1
 365 430 l 1
 365 270 l 1
 230 270 l 1
 230 0 l 1
 80 0 l 1
 80 700 l 1xb4
EndSplineSet
Validated: 1
EndChar

StartChar: plus
Encoding: 43 43 59
Width: 570
VWidth: 1100
Flags: W
HStem: 540 160<80 210 360 490>
VStem: 210 150<380 540>
LayerCount: 2
Fore
SplineSet
490 540 m 1
 360 540 l 1
 360 380 l 1
 210 380 l 1
 210 540 l 1
 80 540 l 1
 80 700 l 1
 490 700 l 5
 490 540 l 1
EndSplineSet
Validated: 1
EndChar

StartChar: braceleft
Encoding: 123 123 86
Width: 445
VWidth: 1100
Flags: W
HStem: 0 21G<215 365> 0 21G<215 365> 150 140<80 215> 410 140<80 215> 680 20G<215 365> 680 20G<215 365>
VStem: 80 285<150 290 410 550> 215 150<0 150 290 410 550 700>
LayerCount: 2
Fore
SplineSet
365 700 m 1xb9
 365 0 l 1
 215 0 l 1
 215 150 l 1xb9
 80 150 l 1
 80 290 l 1xba
 215 290 l 1
 215 410 l 1xb9
 80 410 l 1
 80 550 l 1xba
 215 550 l 1
 215 700 l 1
 365 700 l 1xb9
EndSplineSet
Validated: 1
EndChar

StartChar: bar
Encoding: 124 124 87
Width: 520
VWidth: 1100
Flags: W
HStem: 0 21G<80 200 320 440> 0 21G<80 200 320 440> 680 20G<200 320> 680 20G<200 320>
VStem: 80 120<0 280> 200 120<420 700> 320 120<0 280>
LayerCount: 2
Fore
SplineSet
440 280 m 1xa2
 440 0 l 1
 320 0 l 1
 320 280 l 1
 260 350 l 1
 200 280 l 1
 200 0 l 1
 80 0 l 1
 80 280 l 1xaa
 200 420 l 1
 200 700 l 1
 320 700 l 1
 320 420 l 1xa4
 440 280 l 1xa2
EndSplineSet
Validated: 1
EndChar

StartChar: braceright
Encoding: 125 125 88
Width: 445
VWidth: 1100
Flags: W
HStem: 0 21G<80 230> 0 21G<80 230> 150 140<230 365> 410 140<230 365> 680 20G<80 230> 680 20G<80 230>
VStem: 80 285<150 290 410 550> 80 150<0 150 290 410 550 700>
LayerCount: 2
Fore
SplineSet
80 700 m 1xb9
 230 700 l 1
 230 550 l 1xb9
 365 550 l 1
 365 410 l 1xba
 230 410 l 1
 230 290 l 1xb9
 365 290 l 1
 365 150 l 1xba
 230 150 l 1
 230 0 l 1
 80 0 l 1
 80 700 l 1xb9
EndSplineSet
Validated: 1
EndChar

StartChar: asciitilde
Encoding: 126 126 89
Width: 580
VWidth: 1100
Flags: W
HStem: 580 120<60 245 335 520>
VStem: 60 185<580 700> 335 185<580 700>
LayerCount: 2
Fore
SplineSet
245 580 m 1
 60 580 l 1
 60 700 l 1
 245 700 l 1
 245 580 l 1
520 580 m 1
 335 580 l 1
 335 700 l 1
 520 700 l 1
 520 580 l 1
EndSplineSet
Validated: 1
EndChar

StartChar: exclamdown
Encoding: 161 161 90
Width: 370
VWidth: 1100
Flags: W
VStem: 80 210
LayerCount: 2
Fore
SplineSet
80 668 m 1
 290 453 l 1
 290 301 l 1
 80 516 l 1
 80 668 l 1
80 420 m 1
 290 205 l 1
 290 53 l 1
 80 268 l 1
 80 420 l 1
EndSplineSet
Validated: 1
EndChar

StartChar: questiondown
Encoding: 191 191 95
Width: 518
VWidth: 1100
Flags: W
HStem: 0 21G<177.01 438.01> 0 21G<177.01 438.01> 680.01 20G<191.34 378.01> 680.01 20G<191.34 378.01>
VStem: 80 150<172.93 472.49> 288.01 150<88 350>
LayerCount: 2
Fore
SplineSet
107.5 154.5 m 1xac
 89.169921875 206.830078125 80 260.669921875 80 316 c 0
 80 331.33984375 80.33984375 342.669921875 81 350 c 0
 83.669921875 398.669921875 88.669921875 439.5 96 472.5 c 0
 103.33984375 505.5 115.5 539.33984375 132.5 574.009765625 c 0
 149.5 608.669921875 174.669921875 650.669921875 208.009765625 700.009765625 c 1
 378.009765625 700.009765625 l 1
 340.669921875 644.669921875 312.5 600.5 293.5 567.5 c 0
 274.5 534.5 260 501.169921875 250 467.5 c 0
 240 433.83984375 233.669921875 394.669921875 231 350 c 0
 230.33984375 342.669921875 230 331.669921875 230 317 c 0
 230 234.330078125 249.33984375 158 288.009765625 88 c 1
 288.009765625 350 l 1
 438.009765625 350 l 1
 438.009765625 0 l 1
 198.009765625 0 l 5
 156.009765625 50.669921875 125.83984375 102.169921875 107.5 154.5 c 1xac
EndSplineSet
Validated: 1
EndChar

StartChar: underscore
Encoding: 95 95 96
Width: 650
VWidth: 1100
Flags: W
HStem: 0 160<60 590>
LayerCount: 2
Fore
SplineSet
590 0 m 1
 60 0 l 1
 60 160 l 1
 590 160 l 1
 590 0 l 1
EndSplineSet
Validated: 1
EndChar

StartChar: quotedblright
Encoding: 8221 8221 99
Width: 700
VWidth: 1100
Flags: W
HStem: 680 20G<60 220 448.239 670> 680 20G<60 220 448.239 670>
VStem: 60 160<449 700>
LayerCount: 2
Fore
SplineSet
60 700 m 1xa0
 220 700 l 1
 220 449 l 1
 468 700 l 1
 670 700 l 1
 322 350 l 1
 60 350 l 1
 60 700 l 1xa0
EndSplineSet
Validated: 1
EndChar

StartChar: quoteleft
Encoding: 8216 8216 100
Width: 362
VWidth: 1100
Flags: W
HStem: 720 65<97 142>
VStem: 142 160<432 720>
LayerCount: 2
Fore
SplineSet
10 720 m 1
 97 785 l 1
 302 785 l 1
 302 432 l 1
 142 280 l 1
 142 720 l 1
 10 720 l 1
EndSplineSet
Validated: 1
EndChar

StartChar: equal
Encoding: 61 61 102
Width: 540
VWidth: 1100
Flags: W
HStem: 350 350<80 240 300 460>
VStem: 80 160<350 700> 300 160<350 700>
LayerCount: 2
Fore
SplineSet
240 700 m 1
 240 350 l 1
 80 350 l 1
 80 700 l 1
 240 700 l 1
460 700 m 1
 460 350 l 5
 300 350 l 1
 300 700 l 1
 460 700 l 1
EndSplineSet
Validated: 1
EndChar

StartChar: .notdef
Encoding: 65536 -1 103
Width: 540
VWidth: 1100
Flags: W
LayerCount: 2
Fore
SplineSet
480 668 m 1
 480 516 l 1
 328.116210938 360.5 l 1
 480 205 l 1
 480 53 l 1
 270 268 l 1
 60 53 l 1
 60 205 l 1
 211.883789062 360.5 l 1
 60 516 l 1
 60 668 l 1
 270 453 l 1
 480 668 l 1
EndSplineSet
Validated: 1
EndChar

StartChar: Agrave
Encoding: 192 192 105
Width: 1283
VWidth: 1100
Flags: W
HStem: 0 21G<60 230 872.098 1263.78> 0 21G<60 230 872.098 1263.78> 140 160<230 636.59> 400 160<230 636.59> 680 20G<60 230 872.098 1263.78> 680 20G<60 230 872.098 1263.78> 920 60<520.571 620.571>
VStem: 60 170<0 140 560 700> 400.571 120<720 920>
LayerCount: 2
Fore
SplineSet
60 700 m 1x3b80
 230 700 l 1
 230 560 l 1
 636.58984375 560 l 1
 911.349609375 700 l 1
 1263.78027344 700 l 1
 675 400 l 1
 60 400 l 1
 60 700 l 1x3b80
60 0 m 1xb380
 60 300 l 1
 675 300 l 1
 1263.78027344 0 l 1
 911.349609375 0 l 1
 636.58984375 140 l 1
 230 140 l 1
 230 0 l 1
 60 0 l 1xb380
620.571289062 980 m 1
 620.571289062 920 l 1
 520.571289062 920 l 1
 520.571289062 620 l 1
 400.571289062 720 l 1
 400.571289062 980 l 5
 620.571289062 980 l 1
EndSplineSet
Validated: 1
EndChar

StartChar: Aacute
Encoding: 193 193 106
Width: 1283
VWidth: 1100
Flags: W
HStem: 0 21G<60 230 872.098 1263.78> 0 21G<60 230 872.098 1263.78> 140 160<230 636.59> 400 160<230 636.59> 680 20G<60 230 872.098 1263.78> 680 20G<60 230 872.098 1263.78> 920 60<340.571 440.571>
VStem: 60 170<0 140 560 700> 440.571 120<720 920>
LayerCount: 2
Fore
SplineSet
60 700 m 1x3b80
 230 700 l 1
 230 560 l 1
 636.58984375 560 l 1
 911.349609375 700 l 1
 1263.78027344 700 l 1
 675 400 l 1
 60 400 l 1
 60 700 l 1x3b80
60 0 m 1xb380
 60 300 l 1
 675 300 l 1
 1263.78027344 0 l 1
 911.349609375 0 l 1
 636.58984375 140 l 1
 230 140 l 1
 230 0 l 1
 60 0 l 1xb380
340.571289062 980 m 1
 560.571289062 980 l 1
 560.571289062 720 l 1
 440.571289062 620 l 1
 440.571289062 920 l 1
 340.571289062 920 l 1
 340.571289062 980 l 1
EndSplineSet
Validated: 1
EndChar

StartChar: Egrave
Encoding: 200 200 118
Width: 1129
VWidth: 1100
Flags: W
HStem: 0 21G<345.798 550.773 819.91 989.91> 0 21G<345.798 550.773 819.91 989.91> 540 160<799.91 819.91 989.91 1089.91> 920 60<500.637 600.637>
VStem: 380.637 120<690 920> 819.91 170<0 540>
LayerCount: 2
Fore
SplineSet
1089.91015625 540 m 1xbc
 989.91015625 540 l 1
 989.91015625 0 l 1
 819.91015625 0 l 1
 819.91015625 540 l 1
 799.91015625 540 l 1
 541.190429688 0 l 1
 355.379882812 0 l 1
 20 700 l 1
 208.509765625 700 l 1
 448.280273438 199.540039062 l 1
 688.060546875 700 l 1
 1089.91015625 700 l 1
 1089.91015625 540 l 1xbc
600.63671875 980 m 5
 600.63671875 920 l 5
 500.63671875 920 l 5
 500.63671875 590 l 5
 380.63671875 690 l 5
 380.63671875 980 l 5
 600.63671875 980 l 5
EndSplineSet
Validated: 1
EndChar

StartChar: Eacute
Encoding: 201 201 119
Width: 1129
VWidth: 1100
Flags: W
HStem: 0 21G<345.798 550.773 819.91 989.91> 0 21G<345.798 550.773 819.91 989.91> 540 160<799.91 819.91 989.91 1089.91> 920 60<290.637 390.637>
VStem: 390.637 120<690 920> 819.91 170<0 540>
LayerCount: 2
Fore
SplineSet
1089.91015625 540 m 1xbc
 989.91015625 540 l 1
 989.91015625 0 l 1
 819.91015625 0 l 1
 819.91015625 540 l 1
 799.91015625 540 l 1
 541.190429688 0 l 1
 355.379882812 0 l 1
 20 700 l 1
 208.509765625 700 l 1
 448.280273438 199.540039062 l 1
 688.060546875 700 l 1
 1089.91015625 700 l 1
 1089.91015625 540 l 1xbc
290.63671875 980 m 5
 510.63671875 980 l 5
 510.63671875 690 l 5
 390.63671875 590 l 5
 390.63671875 920 l 5
 290.63671875 920 l 5
 290.63671875 980 l 5
EndSplineSet
Validated: 1
EndChar

StartChar: Ccedilla
Encoding: 199 199 126
Width: 780
VWidth: 1100
Flags: W
HStem: -1.5 100<200.005 300.005> 680 20G<70 240> 680 20G<70 240>
VStem: 70 170<220 700> 300.005 170<98.5 480> 530 170<0 480>
LayerCount: 2
Fore
SplineSet
70 700 m 1xdc
 240 700 l 1
 240 220 l 1
 70 220 l 1
 70 700 l 1xdc
470.004882812 -1.5 m 1
 200.004882812 -1.5 l 1
 200.004882812 98.5 l 1
 300.004882812 98.5 l 1
 300 480 l 1
 470 480 l 1
 470.004882812 -1.5 l 1
530 480 m 1
 700 480 l 1
 700 0 l 1
 530 0 l 1
 530 480 l 1
EndSplineSet
Validated: 1
EndChar

StartChar: Igrave
Encoding: 204 204 132
Width: 526
VWidth: 1100
Flags: W
HStem: 0 21G<286 456> 0 21G<286 456> 680 20G<229.095 456> 680 20G<229.095 456> 920 60<370.182 470.182>
VStem: 250.182 120<860 920> 286 170<0 511>
LayerCount: 2
Fore
SplineSet
456 0 m 1xaa
 286 0 l 1
 286 511 l 1
 152 376 l 1
 40 490 l 1
 249 700 l 1
 456 700 l 1
 456 0 l 1xaa
470.181640625 980 m 1
 470.181640625 920 l 1
 370.181640625 920 l 1
 370.181640625 760 l 1
 250.181640625 860 l 1
 250.181640625 980 l 1x0c
 470.181640625 980 l 1
EndSplineSet
Validated: 1
EndChar

StartChar: Iacute
Encoding: 205 205 133
Width: 526
VWidth: 1100
Flags: W
HStem: 0 21G<286 456> 0 21G<286 456> 680 20G<229.095 456> 680 20G<229.095 456> 920 60<214.182 314.182>
VStem: 286 170<0 511> 314.182 120<860 920>
LayerCount: 2
Fore
SplineSet
456 0 m 1xac
 286 0 l 1
 286 511 l 1
 152 376 l 1
 40 490 l 1
 249 700 l 1
 456 700 l 1
 456 0 l 1xac
214.181640625 980 m 1
 434.181640625 980 l 1
 434.181640625 860 l 1
 314.181640625 760 l 1
 314.181640625 920 l 1x0a
 214.181640625 920 l 1
 214.181640625 980 l 1
EndSplineSet
Validated: 1
EndChar

StartChar: Ograve
Encoding: 210 210 136
Width: 1051
VWidth: 1100
Flags: W
HStem: 0 160<223 828> 540 160<388 662> 920 60<570.182 670.182>
VStem: 450.182 120<860 920>
LayerCount: 2
Fore
SplineSet
909 0 m 1
 142 0 l 1
 40 160 l 1
 275 700 l 1
 776 700 l 1
 1011 160 l 1
 909 0 l 1
662 540 m 1
 388 540 l 1
 223 160 l 1
 828 160 l 1
 662 540 l 1
670.181640625 980 m 1
 670.181640625 920 l 1
 570.181640625 920 l 1
 570.181640625 760 l 1
 450.181640625 860 l 1
 450.181640625 980 l 5
 670.181640625 980 l 1
EndSplineSet
Validated: 1
EndChar

StartChar: Oacute
Encoding: 211 211 137
Width: 1051
VWidth: 1100
Flags: W
HStem: 0 160<223 828> 540 160<388 662> 920 60<370.182 470.182>
VStem: 470.182 120<860 920>
LayerCount: 2
Fore
SplineSet
909 0 m 1
 142 0 l 1
 40 160 l 1
 275 700 l 1
 776 700 l 1
 1011 160 l 1
 909 0 l 1
662 540 m 1
 388 540 l 1
 223 160 l 1
 828 160 l 1
 662 540 l 1
370.181640625 980 m 1
 590.181640625 980 l 1
 590.181640625 860 l 1
 470.181640625 760 l 1
 470.181640625 920 l 1
 370.181640625 920 l 1
 370.181640625 980 l 1
EndSplineSet
Validated: 1
EndChar

StartChar: Ugrave
Encoding: 217 217 146
Width: 1090
VWidth: 1100
Flags: W
HStem: 0 160<230 860> 540 160<663 860> 920 60<420.682 520.682>
VStem: 60 170<160 700> 300.682 120<690 920> 860 170<160 540>
LayerCount: 2
Fore
SplineSet
1030 657 m 1
 1030 43 l 1
 986 0 l 1
 60 0 l 1
 60 700 l 1
 230 700 l 1
 230 160 l 1
 860 160 l 1
 860 540 l 1
 663 540 l 1
 562 406 l 1
 352 406 l 1
 573 700 l 1
 986 700 l 1
 1030 657 l 1
520.681640625 980 m 5
 520.681640625 920 l 5
 420.681640625 920 l 5
 420.681640625 590 l 5
 300.681640625 690 l 5
 300.681640625 980 l 5
 520.681640625 980 l 5
EndSplineSet
Validated: 1
EndChar

StartChar: Uacute
Encoding: 218 218 147
Width: 1090
VWidth: 1100
Flags: W
HStem: 0 160<230 860> 540 160<663 860> 920 60<220.682 320.682>
VStem: 60 170<160 700> 320.682 120<690 920> 860 170<160 540>
LayerCount: 2
Fore
SplineSet
1030 657 m 1
 1030 43 l 1
 986 0 l 1
 60 0 l 1
 60 700 l 1
 230 700 l 1
 230 160 l 1
 860 160 l 1
 860 540 l 1
 663 540 l 1
 562 406 l 1
 352 406 l 1
 573 700 l 1
 986 700 l 1
 1030 657 l 1
220.681640625 980 m 1
 440.681640625 980 l 1
 440.681640625 690 l 1
 320.681640625 590 l 1
 320.681640625 920 l 1
 220.681640625 920 l 1
 220.681640625 980 l 1
EndSplineSet
Validated: 1
EndChar

StartChar: Yacute
Encoding: 221 221 155
Width: 1039
VWidth: 1100
Flags: W
HStem: 0 160<446 557> 600 100<209 292> 920 60<490.682 590.682>
VStem: 590.682 120<690 920>
LayerCount: 2
Fore
SplineSet
1019 700 m 1
 641 0 l 1
 362 0 l 1
 53 573 l 2
 44.330078125 588.330078125 40 603.669921875 40 619 c 0
 40 641 47.5 659.5 62.5 674.5 c 0
 77.5 689.5 97 698 121 700 c 2
 404 700 l 1
 554 400 l 1
 393 400 l 1
 292 600 l 1
 209 600 l 1
 446 160 l 1
 557 160 l 1
 848 700 l 1
 1019 700 l 1
490.681640625 980 m 5
 710.681640625 980 l 5
 710.681640625 690 l 5
 590.681640625 590 l 5
 590.681640625 920 l 5
 490.681640625 920 l 5
 490.681640625 980 l 5
EndSplineSet
Validated: 1
EndChar

StartChar: periodcentered
Encoding: 183 183 159
Width: 540
VWidth: 1100
Flags: W
HStem: 225 350<80 240 300 460>
VStem: 80 160<225 575> 300 160<225 575>
LayerCount: 2
Fore
SplineSet
240 575 m 1
 240 225 l 1
 80 225 l 1
 80 575 l 1
 240 575 l 1
460 575 m 1
 460 225 l 1
 300 225 l 1
 300 575 l 1
 460 575 l 1
EndSplineSet
Validated: 1
EndChar

StartChar: less
Encoding: 60 60 167
Width: 445
VWidth: 1100
Flags: W
HStem: 270 160<80 215>
VStem: 215 150<135 270 430 565>
LayerCount: 2
Fore
SplineSet
365 565 m 1
 365 135 l 5
 215 135 l 5
 215 270 l 1
 80 270 l 1
 80 430 l 1
 215 430 l 1
 215 565 l 1
 365 565 l 1
EndSplineSet
Validated: 1
EndChar

StartChar: greater
Encoding: 62 62 168
Width: 445
VWidth: 1100
Flags: W
HStem: 270 160<230 365>
VStem: 80 150<135 270 430 565>
LayerCount: 2
Fore
SplineSet
80 565 m 1
 230 565 l 1
 230 430 l 1
 365 430 l 1
 365 270 l 1
 230 270 l 1
 230 135 l 5
 80 135 l 5
 80 565 l 1
EndSplineSet
Validated: 1
EndChar

StartChar: acute
Encoding: 180 180 173
Width: 340
VWidth: 1100
Flags: W
HStem: 700 60<60 160>
VStem: 160 120<470 700>
LayerCount: 2
Fore
SplineSet
60 760 m 1
 280 760 l 1
 280 470 l 1
 160 370 l 1
 160 700 l 1
 60 700 l 1
 60 760 l 1
EndSplineSet
Validated: 1
EndChar

StartChar: cedilla
Encoding: 184 184 179
Width: 390
Flags: W
HStem: 0 100<60 160>
VStem: 160 170<100 285>
LayerCount: 2
Fore
SplineSet
330 285 m 5
 330 0 l 5
 60 0 l 1
 60 100 l 1
 160 100 l 1
 160 285 l 1
 330 285 l 5
EndSplineSet
Validated: 1
EndChar

StartChar: dieresis
Encoding: 168 168 180
Width: 440
Flags: W
HStem: 580 120<60 175 265 380>
VStem: 60 115<580 700> 265 115<580 700>
LayerCount: 2
Fore
SplineSet
175 580 m 1
 60 580 l 1
 60 700 l 1
 175 700 l 1
 175 580 l 1
380 580 m 5
 265 580 l 5
 265 700 l 5
 380 700 l 5
 380 580 l 5
EndSplineSet
Validated: 1
EndChar

StartChar: uni02CA
Encoding: 714 714 182
Width: 340
VWidth: 1100
Flags: W
HStem: 700 60<60 160>
VStem: 160 120<470 700>
LayerCount: 2
Fore
SplineSet
60 760 m 1
 280 760 l 1
 280 470 l 1
 160 370 l 1
 160 700 l 1
 60 700 l 1
 60 760 l 1
EndSplineSet
Validated: 1
EndChar

StartChar: circumflex
Encoding: 710 710 183
Width: 400
VWidth: 1100
Flags: W
HStem: 480 120<60 140 260 340> 680 20G<140 260> 680 20G<140 260>
VStem: 140 120<600 700>
LayerCount: 2
Fore
SplineSet
340 600 m 1xd0
 340 480 l 1
 60 480 l 1
 60 600 l 5
 140 600 l 1
 140 700 l 1
 260 700 l 1
 260 600 l 1
 340 600 l 1xd0
EndSplineSet
Validated: 1
EndChar

StartChar: breve
Encoding: 728 728 184
Width: 485
VWidth: 1100
Flags: W
HStem: 480 220<60 160 325 425> 480 120<160 325>
VStem: 60 100<600 700> 325 100<600 700>
LayerCount: 2
Fore
SplineSet
425 700 m 1xb0
 425 480 l 1
 60 480 l 1
 60 700 l 1
 160 700 l 1xb0
 160 600 l 1
 325 600 l 1x70
 325 700 l 1
 425 700 l 1xb0
EndSplineSet
Validated: 1
EndChar

StartChar: degree
Encoding: 176 176 187
Width: 410
Flags: W
HStem: 410 95<155 255> 605 95<155 255>
VStem: 60 95<505 605> 255 95<505 605>
LayerCount: 2
Fore
SplineSet
350 505 m 1
 255 410 l 1
 60 410 l 1
 60 605 l 1
 155 700 l 1
 350 700 l 1
 350 505 l 1
255 605 m 1
 155 605 l 1
 155 505 l 1
 255 505 l 1
 255 605 l 1
EndSplineSet
Validated: 1
EndChar

StartChar: germandbls
Encoding: 223 223 188
Width: 1486
VWidth: 1100
Flags: W
HStem: 0 21G<501.126 563.342 829.029 1086 1199.03 1426> 0 21G<501.126 563.342 829.029 1086 1199.03 1426> 680 20G<150 407.943 520 777.96 1256 1426> 680 20G<150 407.943 520 777.96 1256 1426>
VStem: 1256 170<201 700>
LayerCount: 2
Fore
SplineSet
1426 700 m 5xa8
 1426 0 l 5
 1219 0 l 5
 520 700 l 5
 758 700 l 5
 1256 201 l 5
 1256 700 l 5
 1426 700 l 5xa8
1086 0 m 1
 849 0 l 1
 150 700 l 1
 388 700 l 1
 1086 0 l 1
68 357 m 1
 614 158 l 1
 556 0 l 1
 10 199 l 1
 68 357 l 1
EndSplineSet
Validated: 1
EndChar

StartChar: mu
Encoding: 181 181 190
Width: 920
Flags: W
HStem: 0 21G<60 230> 0 21G<60 230> 140 160<230 690> 680 20G<60 230 507.966 836.465> 680 20G<60 230 507.966 836.465>
VStem: 60 170<0 140 300 700> 690 170<300 540>
LayerCount: 2
Fore
SplineSet
860 183 m 1xb6
 816 140 l 1
 230 140 l 1
 230 0 l 1
 60 0 l 1
 60 700 l 1
 230 700 l 1
 230 300 l 1
 690 300 l 1
 690 540 l 1
 613 540 l 1
 567.780273438 480 l 1
 357.629882812 480 l 1
 523 700 l 1
 816 700 l 1
 860 657 l 1
 860 183 l 1xb6
EndSplineSet
Validated: 1
EndChar

StartChar: section
Encoding: 167 167 191
Width: 695
VWidth: 1100
Flags: W
HStem: 0 21G<218.4 399 465 635> 0 21G<218.4 399 465 635> 680 20G<218.4 399 465 635> 680 20G<218.4 399 465 635>
VStem: 465 170<0 700>
LayerCount: 2
Fore
SplineSet
399 700 m 1xa8
 232 350 l 1
 399 0 l 1
 228 0 l 1
 60 350 l 1
 228 700 l 1
 399 700 l 1xa8
635 700 m 1
 635 0 l 1
 465 0 l 1
 465 700 l 1
 635 700 l 1
EndSplineSet
Validated: 1
EndChar

StartChar: copyright
Encoding: 169 169 192
Width: 941
VWidth: 1100
Flags: W
HStem: 0 120<180 761> 280 145<420 520> 580 120<180 761>
VStem: 60 120<120 580> 250 100<280 490> 420 100<280 425> 590 100<210 425> 761 120<120 580>
LayerCount: 2
Fore
SplineSet
761 0 m 1
 60 0 l 1
 60 600 l 1
 180 700 l 1
 881 700 l 1
 881 100 l 1
 761 0 l 1
180 580 m 1
 180 120 l 1
 761 120 l 1
 761 580 l 1
 180 580 l 1
250 280 m 1
 250 490 l 1
 350 490 l 1
 350 280 l 1
 250 280 l 1
420 280 m 1
 420 425 l 1
 520 425 l 1
 520 280 l 1
 420 280 l 1
590 210 m 1
 590 425 l 1
 690 425 l 1
 690 210 l 1
 590 210 l 1
EndSplineSet
Validated: 1
EndChar

StartChar: registered
Encoding: 174 174 193
Width: 941
VWidth: 1100
Flags: W
HStem: 0 120<180 761> 390 100<340 484.3> 580 120<180 761>
VStem: 60 120<120 580> 761 120<120 580>
LayerCount: 2
Fore
SplineSet
761 0 m 1
 60 0 l 1
 60 600 l 1
 180 700 l 1
 881 700 l 1
 881 100 l 1
 761 0 l 1
180 580 m 1
 180 120 l 1
 761 120 l 1
 761 580 l 1
 180 580 l 1
250 390 m 1
 340 490 l 1
 680 490 l 1
 464.540039062 192 l 1
 341.150390625 192 l 1
 484.299804688 390 l 1
 250 390 l 1
EndSplineSet
Validated: 1
EndChar

StartChar: AEdigraph
Encoding: 65537 -1 194
Width: 1090
VWidth: 1100
Flags: W
HStem: 0 160<230 860> 270 160<460 860> 540 160<230 860>
VStem: 60 170<160 270 430 540> 860 170<160 270 430 540>
CounterMasks: 1 e0
LayerCount: 2
Fore
SplineSet
1030 700 m 1
 1030 0 l 1
 103 0 l 1
 60 43 l 1
 60 270 l 1
 230 270 l 1
 230 160 l 1
 860 160 l 1
 860 270 l 1
 460 270 l 1
 460 430 l 1
 860 430 l 1
 860 540 l 1
 230 540 l 1
 230 430 l 1
 60 430 l 1
 60 657 l 1
 103 700 l 1
 1030 700 l 1
EndSplineSet
Validated: 1
EndChar

StartChar: CHdigraph
Encoding: 65538 -1 195
Width: 1188
VWidth: 1100
Flags: W
HStem: 0 160<60 906> 540 160<60 726>
LayerCount: 2
Fore
SplineSet
1168 0 m 1
 60 0 l 1
 60 160 l 1
 906 160 l 1
 726 540 l 1
 60 540 l 1
 60 700 l 1
 835 700 l 1
 1168 0 l 1
EndSplineSet
Validated: 1
EndChar

StartChar: EOdigraph
Encoding: 65539 -1 196
Width: 1206
VWidth: 1100
Flags: W
HStem: 0 160<131 1066> 540 160<466.656 737.029>
LayerCount: 2
Fore
SplineSet
951 479 m 1
 1012.33007812 420.330078125 1087.33007812 373.330078125 1176 338 c 1
 1119 188 l 1
 1038.33007812 217.330078125 961.330078125 262.669921875 888 324 c 0
 814.669921875 385.330078125 761.669921875 457.330078125 729 540 c 1
 475 540 l 1
 441 458 386.5 386.169921875 311.5 324.5 c 0
 236.5 262.830078125 158.330078125 217.330078125 77 188 c 1
 30 338 l 1
 118.66015625 373.330078125 193.66015625 420.330078125 255 479 c 0
 316.330078125 537.669921875 347.330078125 611.33984375 348 700 c 1
 858 700 l 1
 858.669921875 611.33984375 889.669921875 537.669921875 951 479 c 1
85 160 m 1
 1112 160 l 1
 1066 0 l 1
 131 0 l 1
 85 160 l 1
EndSplineSet
Validated: 1
EndChar

StartChar: KHdigraph
Encoding: 65540 -1 197
Width: 900
VWidth: 1100
Flags: W
HStem: 0 21G<30 247.852 670 840> 0 21G<30 247.852 670 840> 270 160<421 670> 680 20G<670 840> 680 20G<670 840>
VStem: 670 170<0 270 430 700>
LayerCount: 2
Fore
SplineSet
840 700 m 1xb4
 840 0 l 1
 670 0 l 1
 670 270 l 1
 421 270 l 1
 234 0 l 1
 30 0 l 1
 330 430 l 1
 670 430 l 1
 670 700 l 1
 840 700 l 1xb4
EndSplineSet
Validated: 1
EndChar

StartChar: NGdigraph
Encoding: 65541 -1 198
Width: 980
VWidth: 1100
HStem: 0 21G<40 236.778 750 920> 0 21G<40 236.778 750 920> 540 160<160 304 491 750>
VStem: 750 170<0 540>
LayerCount: 2
Fore
SplineSet
920 0 m 1xb0
 750 0 l 1
 750 540 l 1
 491 540 l 1
 227 0 l 1
 40 0 l 1
 304 540 l 1
 160 540 l 1
 160 700 l 1
 920 700 l 1
 920 0 l 1xb0
EndSplineSet
Validated: 1
EndChar

StartChar: OOdigraph
Encoding: 65542 -1 199
Width: 810
VWidth: 1100
Flags: W
HStem: 0 160<230 365 445 580> 540 160<230 365 445 580>
VStem: 60 170<160 540> 580 170<160 540>
LayerCount: 2
Fore
SplineSet
365 700 m 1
 365 540 l 1
 230 540 l 1
 230 160 l 1
 365 160 l 1
 365 0 l 1
 104 0 l 1
 60 44 l 1
 60 656 l 1
 104 700 l 1
 365 700 l 1
750 656 m 1
 750 44 l 1
 706 0 l 1
 445 0 l 1
 445 160 l 1
 580 160 l 1
 580 540 l 1
 445 540 l 1
 445 700 l 1
 706 700 l 1
 750 656 l 1
EndSplineSet
Validated: 1
EndChar

StartChar: SHdigraph
Encoding: 65543 -1 200
Width: 1290
VWidth: 1100
Flags: W
HStem: 0 220<60 220 300 450> 0 140<450 838> 510 190<60 220 300 450> 560 140<450 1035>
VStem: 60 160<0 220 510 700> 300 150<140 220 510 560>
LayerCount: 2
Fore
SplineSet
220 700 m 1x2c
 220 510 l 1
 60 510 l 1
 60 700 l 1
 220 700 l 1x2c
450 220 m 1x8c
 450 140 l 1
 838 140 l 1
 1035 560 l 1
 450 560 l 1x5c
 450 510 l 1
 300 510 l 1
 300 700 l 1x2c
 1270 700 l 1
 944 0 l 1x5c
 300 0 l 1
 300 220 l 1
 450 220 l 1x8c
220 220 m 1x8c
 220 0 l 1
 60 0 l 1
 60 220 l 1
 220 220 l 1x8c
EndSplineSet
Validated: 1
EndChar

StartChar: THdigraph
Encoding: 65544 -1 201
Width: 1080
VWidth: 1100
Flags: W
HStem: 0 160<230 850> 270 160<230 620> 540 160<230 850>
VStem: 60 170<160 270 430 540> 850 170<160 540>
CounterMasks: 1 e0
LayerCount: 2
Fore
SplineSet
1020 44 m 1
 976 0 l 1
 104 0 l 1
 60 44 l 1
 60 656 l 1
 104 700 l 1
 976 700 l 1
 1020 656 l 1
 1020 44 l 1
850 540 m 1
 230 540 l 1
 230 430 l 1
 620 430 l 1
 620 270 l 1
 230 270 l 1
 230 160 l 1
 850 160 l 1
 850 540 l 1
EndSplineSet
Validated: 1
EndChar

StartChar: macron
Encoding: 175 175 208
Width: 440
VWidth: 1100
Flags: W
HStem: 580 120<60 380>
VStem: 60 320<580 700>
LayerCount: 2
Fore
SplineSet
380 580 m 5
 60 580 l 1
 60 700 l 1
 380 700 l 5
 380 580 l 5
EndSplineSet
Validated: 1
EndChar

StartChar: brokenbar
Encoding: 166 166 209
Width: 540
VWidth: 1100
Flags: W
HStem: 0 21G<80 240> 0 21G<80 240> 680 20G<300 460> 680 20G<300 460>
VStem: 80 160<0 350> 300 160<350 700>
LayerCount: 2
Fore
SplineSet
240 350 m 5x8c
 240 0 l 5
 80 0 l 5
 80 350 l 5
 240 350 l 5x8c
460 700 m 1x2c
 460 350 l 1
 300 350 l 1
 300 700 l 1
 460 700 l 1x2c
EndSplineSet
Validated: 1
EndChar

StartChar: paragraph
Encoding: 182 182 210
Width: 940
VWidth: 1100
Flags: W
HStem: 0 160<225.918 500> 530 170<290 440>
VStem: 50 151<190.705 461.24> 500 170<160 700> 730 150<0 700>
LayerCount: 2
Fore
SplineSet
670 700 m 5
 670 0 l 5
 170 0 l 1
 126.669921875 57.330078125 95.830078125 107.16015625 77.5 149.5 c 0
 59.16015625 191.830078125 50 242.669921875 50 302 c 0
 50 311.330078125 50.66015625 327.330078125 52 350 c 0
 56.66015625 418.669921875 72.66015625 479.5 100 532.5 c 0
 127.330078125 585.5 166.620117188 650 230 700 c 1
 440 700 l 1
 440 530 l 1
 290 530 l 1
 290 573 l 1
 273 572 l 1
 251 539.33984375 233.5 514.169921875 222.5 478.5 c 0
 211.5 442.83984375 202.540039062 394.299804688 202 350 c 0
 201.900390625 341.969726562 201 330.669921875 201 316 c 0
 201 257.330078125 212.669921875 205.330078125 236 160 c 1
 500 160 l 5
 500 700 l 5
 670 700 l 5
880 700 m 5
 880 0 l 5
 730 0 l 5
 730 700 l 5
 880 700 l 5
EndSplineSet
Validated: 1
EndChar
